<svg width="12" height="77" viewBox="0 0 12 77" fill="none" xmlns="http://www.w3.org/2000/svg">
<rect width="12" height="77" fill="#444444"/>
<g id="Desktop - 3" clip-path="url(#clip0_0_1)">
<rect width="1920" height="7873" transform="translate(-1816 -6630)" fill="#F9F9F9"/>
<g id="Frame 70">
<path id="Arrow 7" d="M6 68.3333C4.52724 68.3333 3.33333 69.5272 3.33333 71C3.33333 72.4728 4.52724 73.6667 6 73.6667C7.47276 73.6667 8.66666 72.4728 8.66666 71C8.66666 69.5272 7.47276 68.3333 6 68.3333ZM5.5 0.0486968C5.5 0.324839 5.72386 0.548697 6 0.548697C6.27614 0.548697 6.5 0.324839 6.5 0.0486969L5.5 0.0486968ZM6.5 7.84019C6.5 7.56405 6.27614 7.34019 6 7.34019C5.72386 7.34019 5.5 7.56405 5.5 7.84019L6.5 7.84019ZM5.5 7.93759C5.5 8.21373 5.72386 8.43758 6 8.43758C6.27614 8.43758 6.5 8.21373 6.5 7.93759L5.5 7.93759ZM6.5 15.7291C6.5 15.4529 6.27614 15.2291 6 15.2291C5.72386 15.2291 5.5 15.4529 5.5 15.7291L6.5 15.7291ZM5.5 15.8265C5.5 16.1026 5.72386 16.3265 6 16.3265C6.27614 16.3265 6.5 16.1026 6.5 15.8265L5.5 15.8265ZM6.5 23.618C6.5 23.3418 6.27614 23.118 6 23.118C5.72386 23.118 5.5 23.3418 5.5 23.618L6.5 23.618ZM5.5 23.7154C5.5 23.9915 5.72386 24.2154 6 24.2154C6.27614 24.2154 6.5 23.9915 6.5 23.7154L5.5 23.7154ZM6.5 31.5069C6.5 31.2307 6.27614 31.0069 6 31.0069C5.72386 31.0069 5.5 31.2307 5.5 31.5069L6.5 31.5069ZM5.5 31.6042C5.5 31.8804 5.72386 32.1043 6 32.1043C6.27614 32.1043 6.5 31.8804 6.5 31.6042L5.5 31.6042ZM6.5 39.3957C6.5 39.1196 6.27614 38.8957 6 38.8957C5.72386 38.8957 5.5 39.1196 5.5 39.3957L6.5 39.3957ZM5.5 39.4931C5.5 39.7693 5.72386 39.9931 6 39.9931C6.27614 39.9931 6.5 39.7693 6.5 39.4931L5.5 39.4931ZM6.5 47.2846C6.5 47.0085 6.27614 46.7846 6 46.7846C5.72386 46.7846 5.5 47.0085 5.5 47.2846L6.5 47.2846ZM5.5 47.382C5.5 47.6582 5.72386 47.882 6 47.882C6.27614 47.882 6.5 47.6582 6.5 47.382L5.5 47.382ZM6.5 55.1735C6.5 54.8974 6.27614 54.6735 6 54.6735C5.72386 54.6735 5.5 54.8974 5.5 55.1735L6.5 55.1735ZM5.5 55.2709C5.5 55.5471 5.72386 55.7709 6 55.7709C6.27614 55.7709 6.5 55.5471 6.5 55.2709L5.5 55.2709ZM6.5 63.0624C6.5 62.7863 6.27614 62.5624 6 62.5624C5.72385 62.5624 5.5 62.7863 5.5 63.0624L6.5 63.0624ZM5.5 63.1598C5.5 63.4359 5.72385 63.6598 6 63.6598C6.27614 63.6598 6.5 63.4359 6.5 63.1598L5.5 63.1598ZM6.5 70.9513C6.5 70.6752 6.27614 70.4513 6 70.4513C5.72385 70.4513 5.5 70.6752 5.5 70.9513L6.5 70.9513ZM5.5 -2.18557e-08L5.5 0.0486968L6.5 0.0486969L6.5 2.18557e-08L5.5 -2.18557e-08ZM5.5 7.84019L5.5 7.93759L6.5 7.93759L6.5 7.84019L5.5 7.84019ZM5.5 15.7291L5.5 15.8265L6.5 15.8265L6.5 15.7291L5.5 15.7291ZM5.5 23.618L5.5 23.7154L6.5 23.7154L6.5 23.618L5.5 23.618ZM5.5 31.5069L5.5 31.6042L6.5 31.6042L6.5 31.5069L5.5 31.5069ZM5.5 39.3957L5.5 39.4931L6.5 39.4931L6.5 39.3957L5.5 39.3957ZM5.5 47.2846L5.5 47.382L6.5 47.382L6.5 47.2846L5.5 47.2846ZM5.5 55.1735L5.5 55.2709L6.5 55.2709L6.5 55.1735L5.5 55.1735ZM5.5 63.0624L5.5 63.1598L6.5 63.1598L6.5 63.0624L5.5 63.0624ZM5.5 70.9513L5.5 71L6.5 71L6.5 70.9513L5.5 70.9513ZM6 65.6667C3.05448 65.6667 0.666664 68.0545 0.666663 71C0.666663 73.9455 3.05448 76.3333 6 76.3333C8.94552 76.3333 11.3333 73.9455 11.3333 71C11.3333 68.0545 8.94552 65.6667 6 65.6667ZM5 0.0486968C5 0.600982 5.44772 1.0487 6 1.0487C6.55228 1.0487 7 0.600982 7 0.0486969L5 0.0486968ZM7 7.84019C7 7.28791 6.55228 6.84019 6 6.84019C5.44771 6.84019 5 7.28791 5 7.84019L7 7.84019ZM5 7.93759C5 8.48987 5.44771 8.93758 6 8.93758C6.55228 8.93758 7 8.48987 7 7.93759L5 7.93759ZM7 15.7291C7 15.1768 6.55228 14.7291 6 14.7291C5.44771 14.7291 5 15.1768 5 15.7291L7 15.7291ZM5 15.8265C5 16.3788 5.44771 16.8265 6 16.8265C6.55228 16.8265 7 16.3788 7 15.8265L5 15.8265ZM7 23.618C7 23.0657 6.55228 22.618 6 22.618C5.44771 22.618 5 23.0657 5 23.618L7 23.618ZM5 23.7154C5 24.2676 5.44771 24.7154 6 24.7154C6.55228 24.7154 7 24.2676 7 23.7154L5 23.7154ZM7 31.5069C7 30.9546 6.55228 30.5069 6 30.5069C5.44771 30.5069 5 30.9546 5 31.5069L7 31.5069ZM5 31.6042C5 32.1565 5.44771 32.6043 6 32.6043C6.55228 32.6043 7 32.1565 7 31.6042L5 31.6042ZM7 39.3957C7 38.8435 6.55228 38.3957 6 38.3957C5.44771 38.3957 5 38.8435 5 39.3957L7 39.3957ZM5 39.4931C5 40.0454 5.44771 40.4931 6 40.4931C6.55228 40.4931 7 40.0454 7 39.4931L5 39.4931ZM7 47.2846C7 46.7323 6.55228 46.2846 6 46.2846C5.44771 46.2846 5 46.7323 5 47.2846L7 47.2846ZM5 47.382C5 47.9343 5.44771 48.382 6 48.382C6.55228 48.382 7 47.9343 7 47.382L5 47.382ZM7 55.1735C7 54.6212 6.55228 54.1735 6 54.1735C5.44771 54.1735 5 54.6212 5 55.1735L7 55.1735ZM5 55.2709C5 55.8232 5.44771 56.2709 6 56.2709C6.55228 56.2709 7 55.8232 7 55.2709L5 55.2709ZM7 63.0624C7 62.5101 6.55228 62.0624 6 62.0624C5.44771 62.0624 5 62.5101 5 63.0624L7 63.0624ZM5 63.1598C5 63.7121 5.44771 64.1598 6 64.1598C6.55228 64.1598 7 63.7121 7 63.1598L5 63.1598ZM7 70.9513C7 70.399 6.55228 69.9513 6 69.9513C5.44771 69.9513 5 70.399 5 70.9513L7 70.9513ZM5 -4.37115e-08L5 0.0486968L7 0.0486969L7 4.37115e-08L5 -4.37115e-08ZM5 7.84019L5 7.93759L7 7.93759L7 7.84019L5 7.84019ZM5 15.7291L5 15.8265L7 15.8265L7 15.7291L5 15.7291ZM5 23.618L5 23.7154L7 23.7154L7 23.618L5 23.618ZM5 31.5069L5 31.6042L7 31.6042L7 31.5069L5 31.5069ZM5 39.3957L5 39.4931L7 39.4931L7 39.3957L5 39.3957ZM5 47.2846L5 47.382L7 47.382L7 47.2846L5 47.2846ZM5 55.1735L5 55.2709L7 55.2709L7 55.1735L5 55.1735ZM5 63.0624L5 63.1598L7 63.1598L7 63.0624L5 63.0624ZM5 70.9513L5 71L7 71L7 70.9513L5 70.9513Z" fill="black"/>
</g>
</g>
<defs>
<clipPath id="clip0_0_1">
<rect width="1920" height="7873" fill="white" transform="translate(-1816 -6630)"/>
</clipPath>
</defs>
</svg>
