<svg width="12" height="440" viewBox="0 0 12 440" fill="none" xmlns="http://www.w3.org/2000/svg">
<path d="M5.99998 431.333C4.52722 431.333 3.33331 432.527 3.33331 434C3.33331 435.473 4.52722 436.667 5.99998 436.667C7.47274 436.667 8.66665 435.473 8.66665 434C8.66665 432.527 7.47274 431.333 5.99998 431.333ZM5.5 0.0496113C5.5 0.325754 5.72386 0.549611 6 0.549611C6.27614 0.549611 6.5 0.325754 6.5 0.0496114L5.5 0.0496113ZM6.5 7.98743C6.5 7.71128 6.27614 7.48743 6 7.48743C5.72386 7.48743 5.5 7.71128 5.5 7.98743L6.5 7.98743ZM5.5 8.08665C5.5 8.36279 5.72386 8.58665 6 8.58665C6.27614 8.58665 6.5 8.36279 6.5 8.08665L5.5 8.08665ZM6.5 16.0245C6.5 15.7483 6.27614 15.5245 6 15.5245C5.72386 15.5245 5.5 15.7483 5.5 16.0245L6.5 16.0245ZM5.5 16.1237C5.5 16.3998 5.72386 16.6237 6 16.6237C6.27614 16.6237 6.5 16.3998 6.5 16.1237L5.5 16.1237ZM6.5 24.0615C6.5 23.7854 6.27614 23.5615 6 23.5615C5.72386 23.5615 5.5 23.7854 5.5 24.0615L6.5 24.0615ZM5.5 24.1607C5.5 24.4369 5.72386 24.6607 6 24.6607C6.27614 24.6607 6.5 24.4369 6.5 24.1607L5.5 24.1607ZM6.5 32.0985C6.5 31.8224 6.27614 31.5985 6 31.5985C5.72386 31.5985 5.5 31.8224 5.5 32.0985L6.5 32.0985ZM5.5 32.1978C5.5 32.4739 5.72386 32.6978 6 32.6978C6.27614 32.6978 6.5 32.4739 6.5 32.1978L5.5 32.1978ZM6.5 40.1356C6.5 39.8594 6.27614 39.6356 6 39.6356C5.72386 39.6356 5.5 39.8594 5.5 40.1356L6.5 40.1356ZM5.5 40.2348C5.5 40.5109 5.72386 40.7348 6 40.7348C6.27614 40.7348 6.5 40.5109 6.5 40.2348L5.5 40.2348ZM6.5 48.1726C6.5 47.8965 6.27614 47.6726 6 47.6726C5.72386 47.6726 5.5 47.8965 5.5 48.1726L6.5 48.1726ZM5.5 48.2718C5.5 48.548 5.72386 48.7718 6 48.7718C6.27614 48.7718 6.5 48.548 6.5 48.2718L5.5 48.2718ZM6.5 56.2096C6.5 55.9335 6.27614 55.7096 6 55.7096C5.72386 55.7096 5.5 55.9335 5.5 56.2096L6.5 56.2096ZM5.5 56.3089C5.5 56.585 5.72386 56.8089 6 56.8089C6.27614 56.8089 6.5 56.585 6.5 56.3089L5.5 56.3089ZM6.5 64.2467C6.5 63.9705 6.27614 63.7467 6 63.7467C5.72385 63.7467 5.5 63.9705 5.5 64.2467L6.5 64.2467ZM5.5 64.3459C5.5 64.622 5.72385 64.8459 6 64.8459C6.27614 64.8459 6.5 64.622 6.5 64.3459L5.5 64.3459ZM6.5 72.2837C6.5 72.0076 6.27614 71.7837 6 71.7837C5.72385 71.7837 5.5 72.0076 5.5 72.2837L6.5 72.2837ZM5.5 72.3829C5.5 72.6591 5.72385 72.8829 6 72.8829C6.27614 72.8829 6.5 72.6591 6.5 72.3829L5.5 72.3829ZM6.5 80.3207C6.5 80.0446 6.27614 79.8207 6 79.8207C5.72385 79.8207 5.5 80.0446 5.5 80.3207L6.5 80.3207ZM5.5 80.42C5.5 80.6961 5.72385 80.92 6 80.92C6.27614 80.92 6.5 80.6961 6.5 80.42L5.5 80.42ZM6.5 88.3578C6.5 88.0816 6.27614 87.8578 6 87.8578C5.72385 87.8578 5.5 88.0816 5.5 88.3578L6.5 88.3578ZM5.5 88.457C5.5 88.7331 5.72385 88.957 6 88.957C6.27614 88.957 6.5 88.7331 6.5 88.457L5.5 88.457ZM6.5 96.3948C6.5 96.1187 6.27614 95.8948 6 95.8948C5.72385 95.8948 5.5 96.1187 5.5 96.3948L6.5 96.3948ZM5.5 96.494C5.5 96.7702 5.72385 96.994 6 96.994C6.27614 96.994 6.5 96.7702 6.5 96.494L5.5 96.494ZM6.5 104.432C6.5 104.156 6.27614 103.932 6 103.932C5.72385 103.932 5.5 104.156 5.5 104.432L6.5 104.432ZM5.5 104.531C5.5 104.807 5.72385 105.031 6 105.031C6.27614 105.031 6.5 104.807 6.5 104.531L5.5 104.531ZM6.5 112.469C6.5 112.193 6.27614 111.969 6 111.969C5.72385 111.969 5.5 112.193 5.5 112.469L6.5 112.469ZM5.5 112.568C5.5 112.844 5.72385 113.068 6 113.068C6.27614 113.068 6.5 112.844 6.5 112.568L5.5 112.568ZM6.49999 120.506C6.49999 120.23 6.27614 120.006 5.99999 120.006C5.72385 120.006 5.49999 120.23 5.49999 120.506L6.49999 120.506ZM5.49999 120.605C5.49999 120.881 5.72385 121.105 5.99999 121.105C6.27614 121.105 6.49999 120.881 6.49999 120.605L5.49999 120.605ZM6.49999 128.543C6.49999 128.267 6.27614 128.043 5.99999 128.043C5.72385 128.043 5.49999 128.267 5.49999 128.543L6.49999 128.543ZM5.49999 128.642C5.49999 128.918 5.72385 129.142 5.99999 129.142C6.27614 129.142 6.49999 128.918 6.49999 128.642L5.49999 128.642ZM6.49999 136.58C6.49999 136.304 6.27614 136.08 5.99999 136.08C5.72385 136.08 5.49999 136.304 5.49999 136.58L6.49999 136.58ZM5.49999 136.679C5.49999 136.955 5.72385 137.179 5.99999 137.179C6.27614 137.179 6.49999 136.955 6.49999 136.679L5.49999 136.679ZM6.49999 144.617C6.49999 144.341 6.27614 144.117 5.99999 144.117C5.72385 144.117 5.49999 144.341 5.49999 144.617L6.49999 144.617ZM5.49999 144.716C5.49999 144.992 5.72385 145.216 5.99999 145.216C6.27614 145.216 6.49999 144.992 6.49999 144.716L5.49999 144.716ZM6.49999 152.654C6.49999 152.378 6.27614 152.154 5.99999 152.154C5.72385 152.154 5.49999 152.378 5.49999 152.654L6.49999 152.654ZM5.49999 152.753C5.49999 153.029 5.72385 153.253 5.99999 153.253C6.27614 153.253 6.49999 153.029 6.49999 152.753L5.49999 152.753ZM6.49999 160.691C6.49999 160.415 6.27614 160.191 5.99999 160.191C5.72385 160.191 5.49999 160.415 5.49999 160.691L6.49999 160.691ZM5.49999 160.79C5.49999 161.067 5.72385 161.29 5.99999 161.29C6.27614 161.29 6.49999 161.067 6.49999 160.79L5.49999 160.79ZM6.49999 168.728C6.49999 168.452 6.27614 168.228 5.99999 168.228C5.72385 168.228 5.49999 168.452 5.49999 168.728L6.49999 168.728ZM5.49999 168.827C5.49999 169.104 5.72385 169.327 5.99999 169.327C6.27613 169.327 6.49999 169.104 6.49999 168.827L5.49999 168.827ZM6.49999 176.765C6.49999 176.489 6.27613 176.265 5.99999 176.265C5.72385 176.265 5.49999 176.489 5.49999 176.765L6.49999 176.765ZM5.49999 176.864C5.49999 177.141 5.72385 177.364 5.99999 177.364C6.27613 177.364 6.49999 177.141 6.49999 176.864L5.49999 176.864ZM6.49999 184.802C6.49999 184.526 6.27613 184.302 5.99999 184.302C5.72385 184.302 5.49999 184.526 5.49999 184.802L6.49999 184.802ZM5.49999 184.902C5.49999 185.178 5.72385 185.402 5.99999 185.402C6.27613 185.402 6.49999 185.178 6.49999 184.902L5.49999 184.902ZM6.49999 192.839C6.49999 192.563 6.27613 192.339 5.99999 192.339C5.72385 192.339 5.49999 192.563 5.49999 192.839L6.49999 192.839ZM5.49999 192.939C5.49999 193.215 5.72385 193.439 5.99999 193.439C6.27613 193.439 6.49999 193.215 6.49999 192.939L5.49999 192.939ZM6.49999 200.876C6.49999 200.6 6.27613 200.376 5.99999 200.376C5.72385 200.376 5.49999 200.6 5.49999 200.876L6.49999 200.876ZM5.49999 200.976C5.49999 201.252 5.72385 201.476 5.99999 201.476C6.27613 201.476 6.49999 201.252 6.49999 200.976L5.49999 200.976ZM6.49999 208.913C6.49999 208.637 6.27613 208.413 5.99999 208.413C5.72385 208.413 5.49999 208.637 5.49999 208.913L6.49999 208.913ZM5.49999 209.013C5.49999 209.289 5.72385 209.513 5.99999 209.513C6.27613 209.513 6.49999 209.289 6.49999 209.013L5.49999 209.013ZM6.49999 216.95C6.49999 216.674 6.27613 216.45 5.99999 216.45C5.72385 216.45 5.49999 216.674 5.49999 216.95L6.49999 216.95ZM5.49999 217.05C5.49999 217.326 5.72385 217.55 5.99999 217.55C6.27613 217.55 6.49999 217.326 6.49999 217.05L5.49999 217.05ZM6.49999 224.988C6.49999 224.711 6.27613 224.488 5.99999 224.488C5.72385 224.488 5.49999 224.711 5.49999 224.988L6.49999 224.988ZM5.49999 225.087C5.49999 225.363 5.72385 225.587 5.99999 225.587C6.27613 225.587 6.49999 225.363 6.49999 225.087L5.49999 225.087ZM6.49999 233.025C6.49999 232.748 6.27613 232.525 5.99999 232.525C5.72385 232.525 5.49999 232.748 5.49999 233.025L6.49999 233.025ZM5.49999 233.124C5.49999 233.4 5.72385 233.624 5.99999 233.624C6.27613 233.624 6.49999 233.4 6.49999 233.124L5.49999 233.124ZM6.49999 241.062C6.49999 240.785 6.27613 240.562 5.99999 240.562C5.72385 240.562 5.49999 240.785 5.49999 241.062L6.49999 241.062ZM5.49999 241.161C5.49999 241.437 5.72385 241.661 5.99999 241.661C6.27613 241.661 6.49999 241.437 6.49999 241.161L5.49999 241.161ZM6.49999 249.099C6.49999 248.823 6.27613 248.599 5.99999 248.599C5.72385 248.599 5.49999 248.823 5.49999 249.099L6.49999 249.099ZM5.49999 249.198C5.49999 249.474 5.72385 249.698 5.99999 249.698C6.27613 249.698 6.49999 249.474 6.49999 249.198L5.49999 249.198ZM6.49999 257.136C6.49999 256.86 6.27613 256.636 5.99999 256.636C5.72385 256.636 5.49999 256.86 5.49999 257.136L6.49999 257.136ZM5.49999 257.235C5.49999 257.511 5.72385 257.735 5.99999 257.735C6.27613 257.735 6.49999 257.511 6.49999 257.235L5.49999 257.235ZM6.49999 265.173C6.49999 264.897 6.27613 264.673 5.99999 264.673C5.72385 264.673 5.49999 264.897 5.49999 265.173L6.49999 265.173ZM5.49999 265.272C5.49999 265.548 5.72385 265.772 5.99999 265.772C6.27613 265.772 6.49999 265.548 6.49999 265.272L5.49999 265.272ZM6.49999 273.21C6.49999 272.934 6.27613 272.71 5.99999 272.71C5.72385 272.71 5.49999 272.934 5.49999 273.21L6.49999 273.21ZM5.49999 273.309C5.49999 273.585 5.72385 273.809 5.99999 273.809C6.27613 273.809 6.49999 273.585 6.49999 273.309L5.49999 273.309ZM6.49999 281.247C6.49999 280.971 6.27613 280.747 5.99999 280.747C5.72385 280.747 5.49999 280.971 5.49999 281.247L6.49999 281.247ZM5.49999 281.346C5.49999 281.622 5.72385 281.846 5.99999 281.846C6.27613 281.846 6.49999 281.622 6.49999 281.346L5.49999 281.346ZM6.49999 289.284C6.49999 289.008 6.27613 288.784 5.99999 288.784C5.72384 288.784 5.49999 289.008 5.49999 289.284L6.49999 289.284ZM5.49999 289.383C5.49999 289.659 5.72384 289.883 5.99999 289.883C6.27613 289.883 6.49999 289.659 6.49999 289.383L5.49999 289.383ZM6.49999 297.321C6.49999 297.045 6.27613 296.821 5.99999 296.821C5.72384 296.821 5.49999 297.045 5.49999 297.321L6.49999 297.321ZM5.49999 297.42C5.49999 297.696 5.72384 297.92 5.99999 297.92C6.27613 297.92 6.49999 297.696 6.49999 297.42L5.49999 297.42ZM6.49999 305.358C6.49999 305.082 6.27613 304.858 5.99999 304.858C5.72384 304.858 5.49999 305.082 5.49999 305.358L6.49999 305.358ZM5.49999 305.457C5.49999 305.733 5.72384 305.957 5.99999 305.957C6.27613 305.957 6.49999 305.733 6.49999 305.457L5.49999 305.457ZM6.49999 313.395C6.49999 313.119 6.27613 312.895 5.99999 312.895C5.72384 312.895 5.49999 313.119 5.49999 313.395L6.49999 313.395ZM5.49999 313.494C5.49999 313.77 5.72384 313.994 5.99999 313.994C6.27613 313.994 6.49999 313.77 6.49999 313.494L5.49999 313.494ZM6.49999 321.432C6.49999 321.156 6.27613 320.932 5.99999 320.932C5.72384 320.932 5.49999 321.156 5.49999 321.432L6.49999 321.432ZM5.49999 321.531C5.49999 321.807 5.72384 322.031 5.99999 322.031C6.27613 322.031 6.49999 321.807 6.49999 321.531L5.49999 321.531ZM6.49999 329.469C6.49999 329.193 6.27613 328.969 5.99999 328.969C5.72384 328.969 5.49999 329.193 5.49999 329.469L6.49999 329.469ZM5.49999 329.568C5.49999 329.844 5.72384 330.068 5.99999 330.068C6.27613 330.068 6.49999 329.844 6.49999 329.568L5.49999 329.568ZM6.49999 337.506C6.49999 337.23 6.27613 337.006 5.99999 337.006C5.72384 337.006 5.49999 337.23 5.49999 337.506L6.49999 337.506ZM5.49999 337.605C5.49999 337.881 5.72384 338.105 5.99999 338.105C6.27613 338.105 6.49999 337.881 6.49999 337.605L5.49999 337.605ZM6.49998 345.543C6.49998 345.267 6.27613 345.043 5.99998 345.043C5.72384 345.043 5.49998 345.267 5.49998 345.543L6.49998 345.543ZM5.49998 345.642C5.49998 345.918 5.72384 346.142 5.99998 346.142C6.27613 346.142 6.49998 345.918 6.49998 345.642L5.49998 345.642ZM6.49998 353.58C6.49998 353.304 6.27613 353.08 5.99998 353.08C5.72384 353.08 5.49998 353.304 5.49998 353.58L6.49998 353.58ZM5.49998 353.679C5.49998 353.955 5.72384 354.179 5.99998 354.179C6.27613 354.179 6.49998 353.955 6.49998 353.679L5.49998 353.679ZM6.49998 361.617C6.49998 361.341 6.27613 361.117 5.99998 361.117C5.72384 361.117 5.49998 361.341 5.49998 361.617L6.49998 361.617ZM5.49998 361.716C5.49998 361.992 5.72384 362.216 5.99998 362.216C6.27613 362.216 6.49998 361.992 6.49998 361.716L5.49998 361.716ZM6.49998 369.654C6.49998 369.378 6.27613 369.154 5.99998 369.154C5.72384 369.154 5.49998 369.378 5.49998 369.654L6.49998 369.654ZM5.49998 369.753C5.49998 370.029 5.72384 370.253 5.99998 370.253C6.27613 370.253 6.49998 370.029 6.49998 369.753L5.49998 369.753ZM6.49998 377.691C6.49998 377.415 6.27613 377.191 5.99998 377.191C5.72384 377.191 5.49998 377.415 5.49998 377.691L6.49998 377.691ZM5.49998 377.79C5.49998 378.066 5.72384 378.29 5.99998 378.29C6.27613 378.29 6.49998 378.066 6.49998 377.79L5.49998 377.79ZM6.49998 385.728C6.49998 385.452 6.27613 385.228 5.99998 385.228C5.72384 385.228 5.49998 385.452 5.49998 385.728L6.49998 385.728ZM5.49998 385.827C5.49998 386.103 5.72384 386.327 5.99998 386.327C6.27613 386.327 6.49998 386.103 6.49998 385.827L5.49998 385.827ZM6.49998 393.765C6.49998 393.489 6.27613 393.265 5.99998 393.265C5.72384 393.265 5.49998 393.489 5.49998 393.765L6.49998 393.765ZM5.49998 393.864C5.49998 394.14 5.72384 394.364 5.99998 394.364C6.27613 394.364 6.49998 394.14 6.49998 393.864L5.49998 393.864ZM6.49998 401.802C6.49998 401.526 6.27612 401.302 5.99998 401.302C5.72384 401.302 5.49998 401.526 5.49998 401.802L6.49998 401.802ZM5.49998 401.901C5.49998 402.177 5.72384 402.401 5.99998 402.401C6.27612 402.401 6.49998 402.177 6.49998 401.901L5.49998 401.901ZM6.49998 409.839C6.49998 409.563 6.27612 409.339 5.99998 409.339C5.72384 409.339 5.49998 409.563 5.49998 409.839L6.49998 409.839ZM5.49998 409.938C5.49998 410.214 5.72384 410.438 5.99998 410.438C6.27612 410.438 6.49998 410.214 6.49998 409.938L5.49998 409.938ZM6.49998 417.876C6.49998 417.6 6.27612 417.376 5.99998 417.376C5.72384 417.376 5.49998 417.6 5.49998 417.876L6.49998 417.876ZM5.49998 417.975C5.49998 418.251 5.72384 418.475 5.99998 418.475C6.27612 418.475 6.49998 418.251 6.49998 417.975L5.49998 417.975ZM6.49998 425.913C6.49998 425.637 6.27612 425.413 5.99998 425.413C5.72384 425.413 5.49998 425.637 5.49998 425.913L6.49998 425.913ZM5.49998 426.012C5.49998 426.288 5.72384 426.512 5.99998 426.512C6.27612 426.512 6.49998 426.288 6.49998 426.012L5.49998 426.012ZM6.49998 433.95C6.49998 433.674 6.27612 433.45 5.99998 433.45C5.72384 433.45 5.49998 433.674 5.49998 433.95L6.49998 433.95ZM5.5 -2.18557e-08L5.5 0.0496113L6.5 0.0496114L6.5 2.18557e-08L5.5 -2.18557e-08ZM5.5 7.98743L5.5 8.08665L6.5 8.08665L6.5 7.98743L5.5 7.98743ZM5.5 16.0245L5.5 16.1237L6.5 16.1237L6.5 16.0245L5.5 16.0245ZM5.5 24.0615L5.5 24.1607L6.5 24.1607L6.5 24.0615L5.5 24.0615ZM5.5 32.0985L5.5 32.1978L6.5 32.1978L6.5 32.0985L5.5 32.0985ZM5.5 40.1356L5.5 40.2348L6.5 40.2348L6.5 40.1356L5.5 40.1356ZM5.5 48.1726L5.5 48.2718L6.5 48.2718L6.5 48.1726L5.5 48.1726ZM5.5 56.2096L5.5 56.3089L6.5 56.3089L6.5 56.2096L5.5 56.2096ZM5.5 64.2467L5.5 64.3459L6.5 64.3459L6.5 64.2467L5.5 64.2467ZM5.5 72.2837L5.5 72.3829L6.5 72.3829L6.5 72.2837L5.5 72.2837ZM5.5 80.3207L5.5 80.42L6.5 80.42L6.5 80.3207L5.5 80.3207ZM5.5 88.3578L5.5 88.457L6.5 88.457L6.5 88.3578L5.5 88.3578ZM5.5 96.3948L5.5 96.494L6.5 96.494L6.5 96.3948L5.5 96.3948ZM5.5 104.432L5.5 104.531L6.5 104.531L6.5 104.432L5.5 104.432ZM5.5 112.469L5.5 112.568L6.5 112.568L6.5 112.469L5.5 112.469ZM5.49999 120.506L5.49999 120.605L6.49999 120.605L6.49999 120.506L5.49999 120.506ZM5.49999 128.543L5.49999 128.642L6.49999 128.642L6.49999 128.543L5.49999 128.543ZM5.49999 136.58L5.49999 136.679L6.49999 136.679L6.49999 136.58L5.49999 136.58ZM5.49999 144.617L5.49999 144.716L6.49999 144.716L6.49999 144.617L5.49999 144.617ZM5.49999 152.654L5.49999 152.753L6.49999 152.753L6.49999 152.654L5.49999 152.654ZM5.49999 160.691L5.49999 160.79L6.49999 160.79L6.49999 160.691L5.49999 160.691ZM5.49999 168.728L5.49999 168.827L6.49999 168.827L6.49999 168.728L5.49999 168.728ZM5.49999 176.765L5.49999 176.864L6.49999 176.864L6.49999 176.765L5.49999 176.765ZM5.49999 184.802L5.49999 184.902L6.49999 184.902L6.49999 184.802L5.49999 184.802ZM5.49999 192.839L5.49999 192.939L6.49999 192.939L6.49999 192.839L5.49999 192.839ZM5.49999 200.876L5.49999 200.976L6.49999 200.976L6.49999 200.876L5.49999 200.876ZM5.49999 208.913L5.49999 209.013L6.49999 209.013L6.49999 208.913L5.49999 208.913ZM5.49999 216.95L5.49999 217.05L6.49999 217.05L6.49999 216.95L5.49999 216.95ZM5.49999 224.988L5.49999 225.087L6.49999 225.087L6.49999 224.988L5.49999 224.988ZM5.49999 233.025L5.49999 233.124L6.49999 233.124L6.49999 233.025L5.49999 233.025ZM5.49999 241.062L5.49999 241.161L6.49999 241.161L6.49999 241.062L5.49999 241.062ZM5.49999 249.099L5.49999 249.198L6.49999 249.198L6.49999 249.099L5.49999 249.099ZM5.49999 257.136L5.49999 257.235L6.49999 257.235L6.49999 257.136L5.49999 257.136ZM5.49999 265.173L5.49999 265.272L6.49999 265.272L6.49999 265.173L5.49999 265.173ZM5.49999 273.21L5.49999 273.309L6.49999 273.309L6.49999 273.21L5.49999 273.21ZM5.49999 281.247L5.49999 281.346L6.49999 281.346L6.49999 281.247L5.49999 281.247ZM5.49999 289.284L5.49999 289.383L6.49999 289.383L6.49999 289.284L5.49999 289.284ZM5.49999 297.321L5.49999 297.42L6.49999 297.42L6.49999 297.321L5.49999 297.321ZM5.49999 305.358L5.49999 305.457L6.49999 305.457L6.49999 305.358L5.49999 305.358ZM5.49999 313.395L5.49999 313.494L6.49999 313.494L6.49999 313.395L5.49999 313.395ZM5.49999 321.432L5.49999 321.531L6.49999 321.531L6.49999 321.432L5.49999 321.432ZM5.49999 329.469L5.49999 329.568L6.49999 329.568L6.49999 329.469L5.49999 329.469ZM5.49999 337.506L5.49999 337.605L6.49999 337.605L6.49999 337.506L5.49999 337.506ZM5.49998 345.543L5.49998 345.642L6.49998 345.642L6.49998 345.543L5.49998 345.543ZM5.49998 353.58L5.49998 353.679L6.49998 353.679L6.49998 353.58L5.49998 353.58ZM5.49998 361.617L5.49998 361.716L6.49998 361.716L6.49998 361.617L5.49998 361.617ZM5.49998 369.654L5.49998 369.753L6.49998 369.753L6.49998 369.654L5.49998 369.654ZM5.49998 377.691L5.49998 377.79L6.49998 377.79L6.49998 377.691L5.49998 377.691ZM5.49998 385.728L5.49998 385.827L6.49998 385.827L6.49998 385.728L5.49998 385.728ZM5.49998 393.765L5.49998 393.864L6.49998 393.864L6.49998 393.765L5.49998 393.765ZM5.49998 401.802L5.49998 401.901L6.49998 401.901L6.49998 401.802L5.49998 401.802ZM5.49998 409.839L5.49998 409.938L6.49998 409.938L6.49998 409.839L5.49998 409.839ZM5.49998 417.876L5.49998 417.975L6.49998 417.975L6.49998 417.876L5.49998 417.876ZM5.49998 425.913L5.49998 426.012L6.49998 426.012L6.49998 425.913L5.49998 425.913ZM5.49998 433.95L5.49998 434L6.49998 434L6.49998 433.95L5.49998 433.95ZM5.99998 428.667C3.05446 428.667 0.666648 431.054 0.666648 434C0.666647 436.946 3.05446 439.333 5.99998 439.333C8.9455 439.333 11.3333 436.946 11.3333 434C11.3333 431.054 8.9455 428.667 5.99998 428.667ZM5 0.0496113C5 0.601896 5.44772 1.04961 6 1.04961C6.55228 1.04961 7 0.601896 7 0.0496114L5 0.0496113ZM7 7.98743C7 7.43514 6.55228 6.98743 6 6.98743C5.44771 6.98743 5 7.43514 5 7.98743L7 7.98743ZM5 8.08665C5 8.63893 5.44771 9.08665 6 9.08665C6.55228 9.08665 7 8.63893 7 8.08665L5 8.08665ZM7 16.0245C7 15.4722 6.55228 15.0245 6 15.0245C5.44771 15.0245 5 15.4722 5 16.0245L7 16.0245ZM5 16.1237C5 16.676 5.44771 17.1237 6 17.1237C6.55228 17.1237 7 16.676 7 16.1237L5 16.1237ZM7 24.0615C7 23.5092 6.55228 23.0615 6 23.0615C5.44771 23.0615 5 23.5092 5 24.0615L7 24.0615ZM5 24.1607C5 24.713 5.44771 25.1607 6 25.1607C6.55228 25.1607 7 24.713 7 24.1607L5 24.1607ZM7 32.0985C7 31.5462 6.55228 31.0985 6 31.0985C5.44771 31.0985 5 31.5462 5 32.0985L7 32.0985ZM5 32.1978C5 32.75 5.44771 33.1978 6 33.1978C6.55228 33.1978 7 32.75 7 32.1978L5 32.1978ZM7 40.1356C7 39.5833 6.55228 39.1356 6 39.1356C5.44771 39.1356 5 39.5833 5 40.1356L7 40.1356ZM5 40.2348C5 40.7871 5.44771 41.2348 6 41.2348C6.55228 41.2348 7 40.7871 7 40.2348L5 40.2348ZM7 48.1726C7 47.6203 6.55228 47.1726 6 47.1726C5.44771 47.1726 5 47.6203 5 48.1726L7 48.1726ZM5 48.2718C5 48.8241 5.44771 49.2718 6 49.2718C6.55228 49.2718 7 48.8241 7 48.2718L5 48.2718ZM7 56.2096C7 55.6574 6.55228 55.2096 6 55.2096C5.44771 55.2096 5 55.6574 5 56.2096L7 56.2096ZM5 56.3089C5 56.8612 5.44771 57.3089 6 57.3089C6.55228 57.3089 7 56.8612 7 56.3089L5 56.3089ZM7 64.2467C7 63.6944 6.55228 63.2467 6 63.2467C5.44771 63.2467 5 63.6944 5 64.2467L7 64.2467ZM5 64.3459C5 64.8982 5.44771 65.3459 6 65.3459C6.55228 65.3459 7 64.8982 7 64.3459L5 64.3459ZM7 72.2837C7 71.7314 6.55228 71.2837 6 71.2837C5.44771 71.2837 5 71.7314 5 72.2837L7 72.2837ZM5 72.3829C5 72.9352 5.44771 73.3829 6 73.3829C6.55228 73.3829 7 72.9352 7 72.3829L5 72.3829ZM7 80.3207C7 79.7685 6.55228 79.3207 6 79.3207C5.44771 79.3207 5 79.7685 5 80.3207L7 80.3207ZM5 80.42C5 80.9723 5.44771 81.42 6 81.42C6.55228 81.42 7 80.9723 7 80.42L5 80.42ZM7 88.3578C7 87.8055 6.55228 87.3578 6 87.3578C5.44771 87.3578 5 87.8055 5 88.3578L7 88.3578ZM5 88.457C5 89.0093 5.44771 89.457 6 89.457C6.55228 89.457 7 89.0093 7 88.457L5 88.457ZM7 96.3948C7 95.8425 6.55228 95.3948 6 95.3948C5.44771 95.3948 5 95.8425 5 96.3948L7 96.3948ZM5 96.494C5 97.0463 5.44771 97.494 6 97.494C6.55228 97.494 7 97.0463 7 96.494L5 96.494ZM7 104.432C7 103.88 6.55228 103.432 6 103.432C5.44771 103.432 5 103.88 5 104.432L7 104.432ZM5 104.531C5 105.083 5.44771 105.531 6 105.531C6.55228 105.531 7 105.083 7 104.531L5 104.531ZM7 112.469C7 111.917 6.55228 111.469 6 111.469C5.44771 111.469 5 111.917 5 112.469L7 112.469ZM5 112.568C5 113.12 5.44771 113.568 6 113.568C6.55228 113.568 7 113.12 7 112.568L5 112.568ZM6.99999 120.506C6.99999 119.954 6.55228 119.506 5.99999 119.506C5.44771 119.506 4.99999 119.954 4.99999 120.506L6.99999 120.506ZM4.99999 120.605C4.99999 121.157 5.44771 121.605 5.99999 121.605C6.55228 121.605 6.99999 121.157 6.99999 120.605L4.99999 120.605ZM6.99999 128.543C6.99999 127.991 6.55228 127.543 5.99999 127.543C5.44771 127.543 4.99999 127.991 4.99999 128.543L6.99999 128.543ZM4.99999 128.642C4.99999 129.194 5.44771 129.642 5.99999 129.642C6.55228 129.642 6.99999 129.194 6.99999 128.642L4.99999 128.642ZM6.99999 136.58C6.99999 136.028 6.55228 135.58 5.99999 135.58C5.44771 135.58 4.99999 136.028 4.99999 136.58L6.99999 136.58ZM4.99999 136.679C4.99999 137.232 5.44771 137.679 5.99999 137.679C6.55228 137.679 6.99999 137.232 6.99999 136.679L4.99999 136.679ZM6.99999 144.617C6.99999 144.065 6.55228 143.617 5.99999 143.617C5.44771 143.617 4.99999 144.065 4.99999 144.617L6.99999 144.617ZM4.99999 144.716C4.99999 145.269 5.44771 145.716 5.99999 145.716C6.55228 145.716 6.99999 145.269 6.99999 144.716L4.99999 144.716ZM6.99999 152.654C6.99999 152.102 6.55228 151.654 5.99999 151.654C5.44771 151.654 4.99999 152.102 4.99999 152.654L6.99999 152.654ZM4.99999 152.753C4.99999 153.306 5.44771 153.753 5.99999 153.753C6.55228 153.753 6.99999 153.306 6.99999 152.753L4.99999 152.753ZM6.99999 160.691C6.99999 160.139 6.55228 159.691 5.99999 159.691C5.44771 159.691 4.99999 160.139 4.99999 160.691L6.99999 160.691ZM4.99999 160.79C4.99999 161.343 5.44771 161.79 5.99999 161.79C6.55228 161.79 6.99999 161.343 6.99999 160.79L4.99999 160.79ZM6.99999 168.728C6.99999 168.176 6.55228 167.728 5.99999 167.728C5.44771 167.728 4.99999 168.176 4.99999 168.728L6.99999 168.728ZM4.99999 168.827C4.99999 169.38 5.44771 169.827 5.99999 169.827C6.55228 169.827 6.99999 169.38 6.99999 168.827L4.99999 168.827ZM6.99999 176.765C6.99999 176.213 6.55228 175.765 5.99999 175.765C5.44771 175.765 4.99999 176.213 4.99999 176.765L6.99999 176.765ZM4.99999 176.864C4.99999 177.417 5.44771 177.864 5.99999 177.864C6.55228 177.864 6.99999 177.417 6.99999 176.864L4.99999 176.864ZM6.99999 184.802C6.99999 184.25 6.55228 183.802 5.99999 183.802C5.44771 183.802 4.99999 184.25 4.99999 184.802L6.99999 184.802ZM4.99999 184.902C4.99999 185.454 5.44771 185.902 5.99999 185.902C6.55228 185.902 6.99999 185.454 6.99999 184.902L4.99999 184.902ZM6.99999 192.839C6.99999 192.287 6.55228 191.839 5.99999 191.839C5.44771 191.839 4.99999 192.287 4.99999 192.839L6.99999 192.839ZM4.99999 192.939C4.99999 193.491 5.44771 193.939 5.99999 193.939C6.55228 193.939 6.99999 193.491 6.99999 192.939L4.99999 192.939ZM6.99999 200.876C6.99999 200.324 6.55228 199.876 5.99999 199.876C5.44771 199.876 4.99999 200.324 4.99999 200.876L6.99999 200.876ZM4.99999 200.976C4.99999 201.528 5.44771 201.976 5.99999 201.976C6.55228 201.976 6.99999 201.528 6.99999 200.976L4.99999 200.976ZM6.99999 208.913C6.99999 208.361 6.55228 207.913 5.99999 207.913C5.44771 207.913 4.99999 208.361 4.99999 208.913L6.99999 208.913ZM4.99999 209.013C4.99999 209.565 5.44771 210.013 5.99999 210.013C6.55228 210.013 6.99999 209.565 6.99999 209.013L4.99999 209.013ZM6.99999 216.95C6.99999 216.398 6.55228 215.95 5.99999 215.95C5.44771 215.95 4.99999 216.398 4.99999 216.95L6.99999 216.95ZM4.99999 217.05C4.99999 217.602 5.44771 218.05 5.99999 218.05C6.55228 218.05 6.99999 217.602 6.99999 217.05L4.99999 217.05ZM6.99999 224.988C6.99999 224.435 6.55227 223.988 5.99999 223.988C5.44771 223.988 4.99999 224.435 4.99999 224.988L6.99999 224.988ZM4.99999 225.087C4.99999 225.639 5.44771 226.087 5.99999 226.087C6.55227 226.087 6.99999 225.639 6.99999 225.087L4.99999 225.087ZM6.99999 233.025C6.99999 232.472 6.55227 232.025 5.99999 232.025C5.44771 232.025 4.99999 232.472 4.99999 233.025L6.99999 233.025ZM4.99999 233.124C4.99999 233.676 5.4477 234.124 5.99999 234.124C6.55227 234.124 6.99999 233.676 6.99999 233.124L4.99999 233.124ZM6.99999 241.062C6.99999 240.509 6.55227 240.062 5.99999 240.062C5.4477 240.062 4.99999 240.509 4.99999 241.062L6.99999 241.062ZM4.99999 241.161C4.99999 241.713 5.4477 242.161 5.99999 242.161C6.55227 242.161 6.99999 241.713 6.99999 241.161L4.99999 241.161ZM6.99999 249.099C6.99999 248.546 6.55227 248.099 5.99999 248.099C5.4477 248.099 4.99999 248.546 4.99999 249.099L6.99999 249.099ZM4.99999 249.198C4.99999 249.75 5.4477 250.198 5.99999 250.198C6.55227 250.198 6.99999 249.75 6.99999 249.198L4.99999 249.198ZM6.99999 257.136C6.99999 256.583 6.55227 256.136 5.99999 256.136C5.4477 256.136 4.99999 256.583 4.99999 257.136L6.99999 257.136ZM4.99999 257.235C4.99999 257.787 5.4477 258.235 5.99999 258.235C6.55227 258.235 6.99999 257.787 6.99999 257.235L4.99999 257.235ZM6.99999 265.173C6.99999 264.62 6.55227 264.173 5.99999 264.173C5.4477 264.173 4.99999 264.62 4.99999 265.173L6.99999 265.173ZM4.99999 265.272C4.99999 265.824 5.4477 266.272 5.99999 266.272C6.55227 266.272 6.99999 265.824 6.99999 265.272L4.99999 265.272ZM6.99999 273.21C6.99999 272.657 6.55227 272.21 5.99999 272.21C5.4477 272.21 4.99999 272.657 4.99999 273.21L6.99999 273.21ZM4.99999 273.309C4.99999 273.861 5.4477 274.309 5.99999 274.309C6.55227 274.309 6.99999 273.861 6.99999 273.309L4.99999 273.309ZM6.99999 281.247C6.99999 280.694 6.55227 280.247 5.99999 280.247C5.4477 280.247 4.99999 280.694 4.99999 281.247L6.99999 281.247ZM4.99999 281.346C4.99999 281.898 5.4477 282.346 5.99999 282.346C6.55227 282.346 6.99999 281.898 6.99999 281.346L4.99999 281.346ZM6.99999 289.284C6.99999 288.732 6.55227 288.284 5.99999 288.284C5.4477 288.284 4.99999 288.732 4.99999 289.284L6.99999 289.284ZM4.99999 289.383C4.99999 289.935 5.4477 290.383 5.99999 290.383C6.55227 290.383 6.99999 289.935 6.99999 289.383L4.99999 289.383ZM6.99999 297.321C6.99999 296.769 6.55227 296.321 5.99999 296.321C5.4477 296.321 4.99999 296.769 4.99999 297.321L6.99999 297.321ZM4.99999 297.42C4.99999 297.972 5.4477 298.42 5.99999 298.42C6.55227 298.42 6.99999 297.972 6.99999 297.42L4.99999 297.42ZM6.99999 305.358C6.99999 304.806 6.55227 304.358 5.99999 304.358C5.4477 304.358 4.99999 304.806 4.99999 305.358L6.99999 305.358ZM4.99999 305.457C4.99999 306.009 5.4477 306.457 5.99999 306.457C6.55227 306.457 6.99999 306.009 6.99999 305.457L4.99999 305.457ZM6.99999 313.395C6.99999 312.843 6.55227 312.395 5.99999 312.395C5.4477 312.395 4.99999 312.843 4.99999 313.395L6.99999 313.395ZM4.99999 313.494C4.99999 314.046 5.4477 314.494 5.99999 314.494C6.55227 314.494 6.99999 314.046 6.99999 313.494L4.99999 313.494ZM6.99999 321.432C6.99999 320.88 6.55227 320.432 5.99999 320.432C5.4477 320.432 4.99999 320.88 4.99999 321.432L6.99999 321.432ZM4.99999 321.531C4.99999 322.083 5.4477 322.531 5.99999 322.531C6.55227 322.531 6.99999 322.083 6.99999 321.531L4.99999 321.531ZM6.99999 329.469C6.99999 328.917 6.55227 328.469 5.99999 328.469C5.4477 328.469 4.99999 328.917 4.99999 329.469L6.99999 329.469ZM4.99999 329.568C4.99999 330.12 5.4477 330.568 5.99999 330.568C6.55227 330.568 6.99999 330.12 6.99999 329.568L4.99999 329.568ZM6.99999 337.506C6.99999 336.954 6.55227 336.506 5.99999 336.506C5.4477 336.506 4.99999 336.954 4.99999 337.506L6.99999 337.506ZM4.99999 337.605C4.99999 338.157 5.4477 338.605 5.99999 338.605C6.55227 338.605 6.99999 338.157 6.99999 337.605L4.99999 337.605ZM6.99998 345.543C6.99998 344.991 6.55227 344.543 5.99998 344.543C5.4477 344.543 4.99998 344.991 4.99998 345.543L6.99998 345.543ZM4.99998 345.642C4.99998 346.194 5.4477 346.642 5.99998 346.642C6.55227 346.642 6.99998 346.194 6.99998 345.642L4.99998 345.642ZM6.99998 353.58C6.99998 353.028 6.55227 352.58 5.99998 352.58C5.4477 352.58 4.99998 353.028 4.99998 353.58L6.99998 353.58ZM4.99998 353.679C4.99998 354.231 5.4477 354.679 5.99998 354.679C6.55227 354.679 6.99998 354.231 6.99998 353.679L4.99998 353.679ZM6.99998 361.617C6.99998 361.065 6.55227 360.617 5.99998 360.617C5.4477 360.617 4.99998 361.065 4.99998 361.617L6.99998 361.617ZM4.99998 361.716C4.99998 362.268 5.4477 362.716 5.99998 362.716C6.55227 362.716 6.99998 362.268 6.99998 361.716L4.99998 361.716ZM6.99998 369.654C6.99998 369.102 6.55227 368.654 5.99998 368.654C5.4477 368.654 4.99998 369.102 4.99998 369.654L6.99998 369.654ZM4.99998 369.753C4.99998 370.305 5.4477 370.753 5.99998 370.753C6.55227 370.753 6.99998 370.305 6.99998 369.753L4.99998 369.753ZM6.99998 377.691C6.99998 377.139 6.55227 376.691 5.99998 376.691C5.4477 376.691 4.99998 377.139 4.99998 377.691L6.99998 377.691ZM4.99998 377.79C4.99998 378.342 5.4477 378.79 5.99998 378.79C6.55227 378.79 6.99998 378.342 6.99998 377.79L4.99998 377.79ZM6.99998 385.728C6.99998 385.176 6.55227 384.728 5.99998 384.728C5.4477 384.728 4.99998 385.176 4.99998 385.728L6.99998 385.728ZM4.99998 385.827C4.99998 386.379 5.4477 386.827 5.99998 386.827C6.55227 386.827 6.99998 386.379 6.99998 385.827L4.99998 385.827ZM6.99998 393.765C6.99998 393.213 6.55227 392.765 5.99998 392.765C5.4477 392.765 4.99998 393.213 4.99998 393.765L6.99998 393.765ZM4.99998 393.864C4.99998 394.417 5.4477 394.864 5.99998 394.864C6.55227 394.864 6.99998 394.417 6.99998 393.864L4.99998 393.864ZM6.99998 401.802C6.99998 401.25 6.55227 400.802 5.99998 400.802C5.4477 400.802 4.99998 401.25 4.99998 401.802L6.99998 401.802ZM4.99998 401.901C4.99998 402.454 5.4477 402.901 5.99998 402.901C6.55227 402.901 6.99998 402.454 6.99998 401.901L4.99998 401.901ZM6.99998 409.839C6.99998 409.287 6.55227 408.839 5.99998 408.839C5.4477 408.839 4.99998 409.287 4.99998 409.839L6.99998 409.839ZM4.99998 409.938C4.99998 410.491 5.4477 410.938 5.99998 410.938C6.55227 410.938 6.99998 410.491 6.99998 409.938L4.99998 409.938ZM6.99998 417.876C6.99998 417.324 6.55227 416.876 5.99998 416.876C5.4477 416.876 4.99998 417.324 4.99998 417.876L6.99998 417.876ZM4.99998 417.975C4.99998 418.528 5.4477 418.975 5.99998 418.975C6.55227 418.975 6.99998 418.528 6.99998 417.975L4.99998 417.975ZM6.99998 425.913C6.99998 425.361 6.55227 424.913 5.99998 424.913C5.4477 424.913 4.99998 425.361 4.99998 425.913L6.99998 425.913ZM4.99998 426.012C4.99998 426.565 5.4477 427.012 5.99998 427.012C6.55227 427.012 6.99998 426.565 6.99998 426.012L4.99998 426.012ZM6.99998 433.95C6.99998 433.398 6.55227 432.95 5.99998 432.95C5.4477 432.95 4.99998 433.398 4.99998 433.95L6.99998 433.95ZM5 -4.37114e-08L5 0.0496113L7 0.0496114L7 4.37114e-08L5 -4.37114e-08ZM5 7.98743L5 8.08665L7 8.08665L7 7.98743L5 7.98743ZM5 16.0245L5 16.1237L7 16.1237L7 16.0245L5 16.0245ZM5 24.0615L5 24.1607L7 24.1607L7 24.0615L5 24.0615ZM5 32.0985L5 32.1978L7 32.1978L7 32.0985L5 32.0985ZM5 40.1356L5 40.2348L7 40.2348L7 40.1356L5 40.1356ZM5 48.1726L5 48.2718L7 48.2718L7 48.1726L5 48.1726ZM5 56.2096L5 56.3089L7 56.3089L7 56.2096L5 56.2096ZM5 64.2467L5 64.3459L7 64.3459L7 64.2467L5 64.2467ZM5 72.2837L5 72.3829L7 72.3829L7 72.2837L5 72.2837ZM5 80.3207L5 80.42L7 80.42L7 80.3207L5 80.3207ZM5 88.3578L5 88.457L7 88.457L7 88.3578L5 88.3578ZM5 96.3948L5 96.494L7 96.494L7 96.3948L5 96.3948ZM5 104.432L5 104.531L7 104.531L7 104.432L5 104.432ZM5 112.469L5 112.568L7 112.568L7 112.469L5 112.469ZM4.99999 120.506L4.99999 120.605L6.99999 120.605L6.99999 120.506L4.99999 120.506ZM4.99999 128.543L4.99999 128.642L6.99999 128.642L6.99999 128.543L4.99999 128.543ZM4.99999 136.58L4.99999 136.679L6.99999 136.679L6.99999 136.58L4.99999 136.58ZM4.99999 144.617L4.99999 144.716L6.99999 144.716L6.99999 144.617L4.99999 144.617ZM4.99999 152.654L4.99999 152.753L6.99999 152.753L6.99999 152.654L4.99999 152.654ZM4.99999 160.691L4.99999 160.79L6.99999 160.79L6.99999 160.691L4.99999 160.691ZM4.99999 168.728L4.99999 168.827L6.99999 168.827L6.99999 168.728L4.99999 168.728ZM4.99999 176.765L4.99999 176.864L6.99999 176.864L6.99999 176.765L4.99999 176.765ZM4.99999 184.802L4.99999 184.902L6.99999 184.902L6.99999 184.802L4.99999 184.802ZM4.99999 192.839L4.99999 192.939L6.99999 192.939L6.99999 192.839L4.99999 192.839ZM4.99999 200.876L4.99999 200.976L6.99999 200.976L6.99999 200.876L4.99999 200.876ZM4.99999 208.913L4.99999 209.013L6.99999 209.013L6.99999 208.913L4.99999 208.913ZM4.99999 216.95L4.99999 217.05L6.99999 217.05L6.99999 216.95L4.99999 216.95ZM4.99999 224.988L4.99999 225.087L6.99999 225.087L6.99999 224.988L4.99999 224.988ZM4.99999 233.025L4.99999 233.124L6.99999 233.124L6.99999 233.025L4.99999 233.025ZM4.99999 241.062L4.99999 241.161L6.99999 241.161L6.99999 241.062L4.99999 241.062ZM4.99999 249.099L4.99999 249.198L6.99999 249.198L6.99999 249.099L4.99999 249.099ZM4.99999 257.136L4.99999 257.235L6.99999 257.235L6.99999 257.136L4.99999 257.136ZM4.99999 265.173L4.99999 265.272L6.99999 265.272L6.99999 265.173L4.99999 265.173ZM4.99999 273.21L4.99999 273.309L6.99999 273.309L6.99999 273.21L4.99999 273.21ZM4.99999 281.247L4.99999 281.346L6.99999 281.346L6.99999 281.247L4.99999 281.247ZM4.99999 289.284L4.99999 289.383L6.99999 289.383L6.99999 289.284L4.99999 289.284ZM4.99999 297.321L4.99999 297.42L6.99999 297.42L6.99999 297.321L4.99999 297.321ZM4.99999 305.358L4.99999 305.457L6.99999 305.457L6.99999 305.358L4.99999 305.358ZM4.99999 313.395L4.99999 313.494L6.99999 313.494L6.99999 313.395L4.99999 313.395ZM4.99999 321.432L4.99999 321.531L6.99999 321.531L6.99999 321.432L4.99999 321.432ZM4.99999 329.469L4.99999 329.568L6.99999 329.568L6.99999 329.469L4.99999 329.469ZM4.99999 337.506L4.99999 337.605L6.99999 337.605L6.99999 337.506L4.99999 337.506ZM4.99998 345.543L4.99998 345.642L6.99998 345.642L6.99998 345.543L4.99998 345.543ZM4.99998 353.58L4.99998 353.679L6.99998 353.679L6.99998 353.58L4.99998 353.58ZM4.99998 361.617L4.99998 361.716L6.99998 361.716L6.99998 361.617L4.99998 361.617ZM4.99998 369.654L4.99998 369.753L6.99998 369.753L6.99998 369.654L4.99998 369.654ZM4.99998 377.691L4.99998 377.79L6.99998 377.79L6.99998 377.691L4.99998 377.691ZM4.99998 385.728L4.99998 385.827L6.99998 385.827L6.99998 385.728L4.99998 385.728ZM4.99998 393.765L4.99998 393.864L6.99998 393.864L6.99998 393.765L4.99998 393.765ZM4.99998 401.802L4.99998 401.901L6.99998 401.901L6.99998 401.802L4.99998 401.802ZM4.99998 409.839L4.99998 409.938L6.99998 409.938L6.99998 409.839L4.99998 409.839ZM4.99998 417.876L4.99998 417.975L6.99998 417.975L6.99998 417.876L4.99998 417.876ZM4.99998 425.913L4.99998 426.012L6.99998 426.012L6.99998 425.913L4.99998 425.913ZM4.99998 433.95L4.99998 434L6.99998 434L6.99998 433.95L4.99998 433.95Z" fill="black"/>
</svg>
